# xmcd CD database file
#
# Track frame offsets:
#	150
#	13806
#	36438
#	48154
#	68098
#	80817
#	87870
#	103920
#	116213
#	129651
#	149780
#	161238
#	180966
#
# Disc length: 2552 seconds
#
# Revision: 0
# Processed by: cddbd v1.5.1PL0 Copyright (c) Steve Scherf et al.
# Submitted via: CDex 1.51
#
DISCID=be09f60d
DTITLE=Adriana Rios - Simply Bossa
DYEAR=2005
DGENRE=Jazz
TTITLE0=Casual Affair
TTITLE1=Once I Loved
TTITLE2=Dreamer
TTITLE3=Bonita
TTITLE4=Rio
TTITLE5=Corcovado
TTITLE6=So Danzo Samba
TTITLE7=That Look Your Wear
TTITLE8=Water to Drink
TTITLE9=Tell me When
TTITLE10=Voce Vai Ver
TTITLE11=Meditation
TTITLE12=Amanda no Frevo
EXTD=YEAR: 2005
EXTT0=
EXTT1=
EXTT2=
EXTT3=
EXTT4=
EXTT5=
EXTT6=
EXTT7=
EXTT8=
EXTT9=
EXTT10=
EXTT11=
EXTT12=
PLAYORDER=
